{
 "cells": [
  {
   "cell_type": "code",
   "execution_count": 13,
   "id": "21fb54bb",
   "metadata": {},
   "outputs": [
    {
     "name": "stdout",
     "output_type": "stream",
     "text": [
      "Image Size: 512x768\n"
     ]
    },
    {
     "name": "stderr",
     "output_type": "stream",
     "text": [
      "Input #0, image2, from '/home/jack/Desktop/HDD500/collections/images/barista/00001.jpg':\n",
      "  Duration: 00:00:01.00, start: 0.000000, bitrate: 477 kb/s\n",
      "    Stream #0:0: Video: mjpeg (Baseline), yuvj420p(pc, bt470bg/unknown/unknown), 512x768 [SAR 1:1 DAR 2:3], 1 tbr, 1 tbn, 1 tbc\n",
      "Stream mapping:\n",
      "  Stream #0:0 -> #0:0 (mjpeg (native) -> mjpeg (native))\n",
      "  Stream #0:0 -> #1:0 (mjpeg (native) -> mjpeg (native))\n",
      "  Stream #0:0 -> #2:0 (mjpeg (native) -> mjpeg (native))\n",
      "  Stream #0:0 -> #3:0 (mjpeg (native) -> mjpeg (native))\n",
      "  Stream #0:0 -> #4:0 (mjpeg (native) -> mjpeg (native))\n",
      "  Stream #0:0 -> #5:0 (mjpeg (native) -> mjpeg (native))\n",
      "  Stream #0:0 -> #6:0 (mjpeg (native) -> mjpeg (native))\n",
      "  Stream #0:0 -> #7:0 (mjpeg (native) -> mjpeg (native))\n",
      "  Stream #0:0 -> #8:0 (mjpeg (native) -> mjpeg (native))\n",
      "  Stream #0:0 -> #9:0 (mjpeg (native) -> mjpeg (native))\n",
      "  Stream #0:0 -> #10:0 (mjpeg (native) -> mjpeg (native))\n",
      "  Stream #0:0 -> #11:0 (mjpeg (native) -> mjpeg (native))\n",
      "  Stream #0:0 -> #12:0 (mjpeg (native) -> mjpeg (native))\n",
      "  Stream #0:0 -> #13:0 (mjpeg (native) -> mjpeg (native))\n",
      "  Stream #0:0 -> #14:0 (mjpeg (native) -> mjpeg (native))\n",
      "  Stream #0:0 -> #15:0 (mjpeg (native) -> mjpeg (native))\n",
      "  Stream #0:0 -> #16:0 (mjpeg (native) -> mjpeg (native))\n",
      "  Stream #0:0 -> #17:0 (mjpeg (native) -> mjpeg (native))\n",
      "  Stream #0:0 -> #18:0 (mjpeg (native) -> mjpeg (native))\n",
      "  Stream #0:0 -> #19:0 (mjpeg (native) -> mjpeg (native))\n",
      "  Stream #0:0 -> #20:0 (mjpeg (native) -> mjpeg (native))\n",
      "  Stream #0:0 -> #21:0 (mjpeg (native) -> mjpeg (native))\n",
      "  Stream #0:0 -> #22:0 (mjpeg (native) -> mjpeg (native))\n",
      "  Stream #0:0 -> #23:0 (mjpeg (native) -> mjpeg (native))\n",
      "  Stream #0:0 -> #24:0 (mjpeg (native) -> mjpeg (native))\n",
      "  Stream #0:0 -> #25:0 (mjpeg (native) -> mjpeg (native))\n",
      "  Stream #0:0 -> #26:0 (mjpeg (native) -> mjpeg (native))\n",
      "  Stream #0:0 -> #27:0 (mjpeg (native) -> mjpeg (native))\n",
      "  Stream #0:0 -> #28:0 (mjpeg (native) -> mjpeg (native))\n",
      "  Stream #0:0 -> #29:0 (mjpeg (native) -> mjpeg (native))\n",
      "  Stream #0:0 -> #30:0 (mjpeg (native) -> h264 (libx264))\n",
      "Press [q] to stop, [?] for help\n",
      "Output #0, image2, to '/home/jack/Desktop/HDD500/collections/images/barista/00002.jpg':\n",
      "  Metadata:\n",
      "    encoder         : Lavf58.29.100\n",
      "    Stream #0:0: Video: mjpeg, yuvj420p(pc), 512x768 [SAR 1:1 DAR 2:3], q=2-31, 200 kb/s, 1 fps, 1 tbn, 1 tbc\n",
      "    Metadata:\n",
      "      encoder         : Lavc58.54.100 mjpeg\n",
      "    Side data:\n",
      "      cpb: bitrate max/min/avg: 0/0/200000 buffer size: 0 vbv_delay: -1\n",
      "Output #1, image2, to '/home/jack/Desktop/HDD500/collections/images/barista/00003.jpg':\n",
      "  Metadata:\n",
      "    encoder         : Lavf58.29.100\n",
      "    Stream #1:0: Video: mjpeg, yuvj420p(pc), 512x768 [SAR 1:1 DAR 2:3], q=2-31, 200 kb/s, 1 fps, 1 tbn, 1 tbc\n",
      "    Metadata:\n",
      "      encoder         : Lavc58.54.100 mjpeg\n",
      "    Side data:\n",
      "      cpb: bitrate max/min/avg: 0/0/200000 buffer size: 0 vbv_delay: -1\n",
      "Output #2, image2, to '/home/jack/Desktop/HDD500/collections/images/barista/00004.jpg':\n",
      "  Metadata:\n",
      "    encoder         : Lavf58.29.100\n",
      "    Stream #2:0: Video: mjpeg, yuvj420p(pc), 512x768 [SAR 1:1 DAR 2:3], q=2-31, 200 kb/s, 1 fps, 1 tbn, 1 tbc\n",
      "    Metadata:\n",
      "      encoder         : Lavc58.54.100 mjpeg\n",
      "    Side data:\n",
      "      cpb: bitrate max/min/avg: 0/0/200000 buffer size: 0 vbv_delay: -1\n",
      "Output #3, image2, to '/home/jack/Desktop/HDD500/collections/images/barista/00005.jpg':\n",
      "  Metadata:\n",
      "    encoder         : Lavf58.29.100\n",
      "    Stream #3:0: Video: mjpeg, yuvj420p(pc), 512x768 [SAR 1:1 DAR 2:3], q=2-31, 200 kb/s, 1 fps, 1 tbn, 1 tbc\n",
      "    Metadata:\n",
      "      encoder         : Lavc58.54.100 mjpeg\n",
      "    Side data:\n",
      "      cpb: bitrate max/min/avg: 0/0/200000 buffer size: 0 vbv_delay: -1\n",
      "Output #4, image2, to '/home/jack/Desktop/HDD500/collections/images/barista/00006.jpg':\n",
      "  Metadata:\n",
      "    encoder         : Lavf58.29.100\n",
      "    Stream #4:0: Video: mjpeg, yuvj420p(pc), 512x768 [SAR 1:1 DAR 2:3], q=2-31, 200 kb/s, 1 fps, 1 tbn, 1 tbc\n",
      "    Metadata:\n",
      "      encoder         : Lavc58.54.100 mjpeg\n",
      "    Side data:\n",
      "      cpb: bitrate max/min/avg: 0/0/200000 buffer size: 0 vbv_delay: -1\n",
      "Output #5, image2, to '/home/jack/Desktop/HDD500/collections/images/barista/00007.jpg':\n",
      "  Metadata:\n",
      "    encoder         : Lavf58.29.100\n",
      "    Stream #5:0: Video: mjpeg, yuvj420p(pc), 512x768 [SAR 1:1 DAR 2:3], q=2-31, 200 kb/s, 1 fps, 1 tbn, 1 tbc\n",
      "    Metadata:\n",
      "      encoder         : Lavc58.54.100 mjpeg\n",
      "    Side data:\n",
      "      cpb: bitrate max/min/avg: 0/0/200000 buffer size: 0 vbv_delay: -1\n",
      "Output #6, image2, to '/home/jack/Desktop/HDD500/collections/images/barista/00008.jpg':\n",
      "  Metadata:\n",
      "    encoder         : Lavf58.29.100\n",
      "    Stream #6:0: Video: mjpeg, yuvj420p(pc), 512x768 [SAR 1:1 DAR 2:3], q=2-31, 200 kb/s, 1 fps, 1 tbn, 1 tbc\n",
      "    Metadata:\n",
      "      encoder         : Lavc58.54.100 mjpeg\n",
      "    Side data:\n",
      "      cpb: bitrate max/min/avg: 0/0/200000 buffer size: 0 vbv_delay: -1\n",
      "Output #7, image2, to '/home/jack/Desktop/HDD500/collections/images/barista/00009.jpg':\n",
      "  Metadata:\n",
      "    encoder         : Lavf58.29.100\n",
      "    Stream #7:0: Video: mjpeg, yuvj420p(pc), 512x768 [SAR 1:1 DAR 2:3], q=2-31, 200 kb/s, 1 fps, 1 tbn, 1 tbc\n",
      "    Metadata:\n",
      "      encoder         : Lavc58.54.100 mjpeg\n",
      "    Side data:\n",
      "      cpb: bitrate max/min/avg: 0/0/200000 buffer size: 0 vbv_delay: -1\n",
      "Output #8, image2, to '/home/jack/Desktop/HDD500/collections/images/barista/00010.jpg':\n",
      "  Metadata:\n",
      "    encoder         : Lavf58.29.100\n",
      "    Stream #8:0: Video: mjpeg, yuvj420p(pc), 512x768 [SAR 1:1 DAR 2:3], q=2-31, 200 kb/s, 1 fps, 1 tbn, 1 tbc\n",
      "    Metadata:\n",
      "      encoder         : Lavc58.54.100 mjpeg\n",
      "    Side data:\n",
      "      cpb: bitrate max/min/avg: 0/0/200000 buffer size: 0 vbv_delay: -1\n",
      "Output #9, image2, to '/home/jack/Desktop/HDD500/collections/images/barista/00011.jpg':\n",
      "  Metadata:\n",
      "    encoder         : Lavf58.29.100\n",
      "    Stream #9:0: Video: mjpeg, yuvj420p(pc), 512x768 [SAR 1:1 DAR 2:3], q=2-31, 200 kb/s, 1 fps, 1 tbn, 1 tbc\n",
      "    Metadata:\n",
      "      encoder         : Lavc58.54.100 mjpeg\n",
      "    Side data:\n",
      "      cpb: bitrate max/min/avg: 0/0/200000 buffer size: 0 vbv_delay: -1\n",
      "Output #10, image2, to '/home/jack/Desktop/HDD500/collections/images/barista/00012.jpg':\n",
      "  Metadata:\n",
      "    encoder         : Lavf58.29.100\n",
      "    Stream #10:0: Video: mjpeg, yuvj420p(pc), 512x768 [SAR 1:1 DAR 2:3], q=2-31, 200 kb/s, 1 fps, 1 tbn, 1 tbc\n",
      "    Metadata:\n",
      "      encoder         : Lavc58.54.100 mjpeg\n",
      "    Side data:\n",
      "      cpb: bitrate max/min/avg: 0/0/200000 buffer size: 0 vbv_delay: -1\n",
      "Output #11, image2, to '/home/jack/Desktop/HDD500/collections/images/barista/00013.jpg':\n",
      "  Metadata:\n",
      "    encoder         : Lavf58.29.100\n",
      "    Stream #11:0: Video: mjpeg, yuvj420p(pc), 512x768 [SAR 1:1 DAR 2:3], q=2-31, 200 kb/s, 1 fps, 1 tbn, 1 tbc\n",
      "    Metadata:\n",
      "      encoder         : Lavc58.54.100 mjpeg\n",
      "    Side data:\n",
      "      cpb: bitrate max/min/avg: 0/0/200000 buffer size: 0 vbv_delay: -1\n",
      "Output #12, image2, to '/home/jack/Desktop/HDD500/collections/images/barista/00014.jpg':\n",
      "  Metadata:\n",
      "    encoder         : Lavf58.29.100\n",
      "    Stream #12:0: Video: mjpeg, yuvj420p(pc), 512x768 [SAR 1:1 DAR 2:3], q=2-31, 200 kb/s, 1 fps, 1 tbn, 1 tbc\n",
      "    Metadata:\n",
      "      encoder         : Lavc58.54.100 mjpeg\n",
      "    Side data:\n",
      "      cpb: bitrate max/min/avg: 0/0/200000 buffer size: 0 vbv_delay: -1\n",
      "Output #13, image2, to '/home/jack/Desktop/HDD500/collections/images/barista/00015.jpg':\n",
      "  Metadata:\n",
      "    encoder         : Lavf58.29.100\n",
      "    Stream #13:0: Video: mjpeg, yuvj420p(pc), 512x768 [SAR 1:1 DAR 2:3], q=2-31, 200 kb/s, 1 fps, 1 tbn, 1 tbc\n",
      "    Metadata:\n",
      "      encoder         : Lavc58.54.100 mjpeg\n",
      "    Side data:\n",
      "      cpb: bitrate max/min/avg: 0/0/200000 buffer size: 0 vbv_delay: -1\n",
      "Output #14, image2, to '/home/jack/Desktop/HDD500/collections/images/barista/00016.jpg':\n",
      "  Metadata:\n",
      "    encoder         : Lavf58.29.100\n",
      "    Stream #14:0: Video: mjpeg, yuvj420p(pc), 512x768 [SAR 1:1 DAR 2:3], q=2-31, 200 kb/s, 1 fps, 1 tbn, 1 tbc\n",
      "    Metadata:\n",
      "      encoder         : Lavc58.54.100 mjpeg\n",
      "    Side data:\n",
      "      cpb: bitrate max/min/avg: 0/0/200000 buffer size: 0 vbv_delay: -1\n",
      "Output #15, image2, to '/home/jack/Desktop/HDD500/collections/images/barista/00017.jpg':\n",
      "  Metadata:\n",
      "    encoder         : Lavf58.29.100\n",
      "    Stream #15:0: Video: mjpeg, yuvj420p(pc), 512x768 [SAR 1:1 DAR 2:3], q=2-31, 200 kb/s, 1 fps, 1 tbn, 1 tbc\n",
      "    Metadata:\n",
      "      encoder         : Lavc58.54.100 mjpeg\n",
      "    Side data:\n",
      "      cpb: bitrate max/min/avg: 0/0/200000 buffer size: 0 vbv_delay: -1\n",
      "Output #16, image2, to '/home/jack/Desktop/HDD500/collections/images/barista/00018.jpg':\n",
      "  Metadata:\n",
      "    encoder         : Lavf58.29.100\n",
      "    Stream #16:0: Video: mjpeg, yuvj420p(pc), 512x768 [SAR 1:1 DAR 2:3], q=2-31, 200 kb/s, 1 fps, 1 tbn, 1 tbc\n",
      "    Metadata:\n",
      "      encoder         : Lavc58.54.100 mjpeg\n",
      "    Side data:\n",
      "      cpb: bitrate max/min/avg: 0/0/200000 buffer size: 0 vbv_delay: -1\n",
      "Output #17, image2, to '/home/jack/Desktop/HDD500/collections/images/barista/00019.jpg':\n",
      "  Metadata:\n",
      "    encoder         : Lavf58.29.100\n",
      "    Stream #17:0: Video: mjpeg, yuvj420p(pc), 512x768 [SAR 1:1 DAR 2:3], q=2-31, 200 kb/s, 1 fps, 1 tbn, 1 tbc\n",
      "    Metadata:\n",
      "      encoder         : Lavc58.54.100 mjpeg\n",
      "    Side data:\n",
      "      cpb: bitrate max/min/avg: 0/0/200000 buffer size: 0 vbv_delay: -1\n",
      "Output #18, image2, to '/home/jack/Desktop/HDD500/collections/images/barista/00020.jpg':\n",
      "  Metadata:\n",
      "    encoder         : Lavf58.29.100\n",
      "    Stream #18:0: Video: mjpeg, yuvj420p(pc), 512x768 [SAR 1:1 DAR 2:3], q=2-31, 200 kb/s, 1 fps, 1 tbn, 1 tbc\n",
      "    Metadata:\n",
      "      encoder         : Lavc58.54.100 mjpeg\n",
      "    Side data:\n",
      "      cpb: bitrate max/min/avg: 0/0/200000 buffer size: 0 vbv_delay: -1\n",
      "Output #19, image2, to '/home/jack/Desktop/HDD500/collections/images/barista/00021.jpg':\n",
      "  Metadata:\n",
      "    encoder         : Lavf58.29.100\n",
      "    Stream #19:0: Video: mjpeg, yuvj420p(pc), 512x768 [SAR 1:1 DAR 2:3], q=2-31, 200 kb/s, 1 fps, 1 tbn, 1 tbc\n",
      "    Metadata:\n",
      "      encoder         : Lavc58.54.100 mjpeg\n",
      "    Side data:\n",
      "      cpb: bitrate max/min/avg: 0/0/200000 buffer size: 0 vbv_delay: -1\n",
      "Output #20, image2, to '/home/jack/Desktop/HDD500/collections/images/barista/00022.jpg':\n",
      "  Metadata:\n",
      "    encoder         : Lavf58.29.100\n",
      "    Stream #20:0: Video: mjpeg, yuvj420p(pc), 512x768 [SAR 1:1 DAR 2:3], q=2-31, 200 kb/s, 1 fps, 1 tbn, 1 tbc\n",
      "    Metadata:\n",
      "      encoder         : Lavc58.54.100 mjpeg\n",
      "    Side data:\n",
      "      cpb: bitrate max/min/avg: 0/0/200000 buffer size: 0 vbv_delay: -1\n",
      "Output #21, image2, to '/home/jack/Desktop/HDD500/collections/images/barista/00023.jpg':\n",
      "  Metadata:\n",
      "    encoder         : Lavf58.29.100\n",
      "    Stream #21:0: Video: mjpeg, yuvj420p(pc), 512x768 [SAR 1:1 DAR 2:3], q=2-31, 200 kb/s, 1 fps, 1 tbn, 1 tbc\n",
      "    Metadata:\n",
      "      encoder         : Lavc58.54.100 mjpeg\n",
      "    Side data:\n",
      "      cpb: bitrate max/min/avg: 0/0/200000 buffer size: 0 vbv_delay: -1\n",
      "Output #22, image2, to '/home/jack/Desktop/HDD500/collections/images/barista/00024.jpg':\n",
      "  Metadata:\n",
      "    encoder         : Lavf58.29.100\n",
      "    Stream #22:0: Video: mjpeg, yuvj420p(pc), 512x768 [SAR 1:1 DAR 2:3], q=2-31, 200 kb/s, 1 fps, 1 tbn, 1 tbc\n",
      "    Metadata:\n",
      "      encoder         : Lavc58.54.100 mjpeg\n",
      "    Side data:\n",
      "      cpb: bitrate max/min/avg: 0/0/200000 buffer size: 0 vbv_delay: -1\n",
      "Output #23, image2, to '/home/jack/Desktop/HDD500/collections/images/barista/00025.jpg':\n",
      "  Metadata:\n",
      "    encoder         : Lavf58.29.100\n",
      "    Stream #23:0: Video: mjpeg, yuvj420p(pc), 512x768 [SAR 1:1 DAR 2:3], q=2-31, 200 kb/s, 1 fps, 1 tbn, 1 tbc\n",
      "    Metadata:\n",
      "      encoder         : Lavc58.54.100 mjpeg\n",
      "    Side data:\n",
      "      cpb: bitrate max/min/avg: 0/0/200000 buffer size: 0 vbv_delay: -1\n",
      "Output #24, image2, to '/home/jack/Desktop/HDD500/collections/images/barista/00026.jpg':\n",
      "  Metadata:\n",
      "    encoder         : Lavf58.29.100\n",
      "    Stream #24:0: Video: mjpeg, yuvj420p(pc), 512x768 [SAR 1:1 DAR 2:3], q=2-31, 200 kb/s, 1 fps, 1 tbn, 1 tbc\n",
      "    Metadata:\n",
      "      encoder         : Lavc58.54.100 mjpeg\n",
      "    Side data:\n",
      "      cpb: bitrate max/min/avg: 0/0/200000 buffer size: 0 vbv_delay: -1\n",
      "Output #25, image2, to '/home/jack/Desktop/HDD500/collections/images/barista/00027.jpg':\n",
      "  Metadata:\n",
      "    encoder         : Lavf58.29.100\n",
      "    Stream #25:0: Video: mjpeg, yuvj420p(pc), 512x768 [SAR 1:1 DAR 2:3], q=2-31, 200 kb/s, 1 fps, 1 tbn, 1 tbc\n",
      "    Metadata:\n",
      "      encoder         : Lavc58.54.100 mjpeg\n",
      "    Side data:\n",
      "      cpb: bitrate max/min/avg: 0/0/200000 buffer size: 0 vbv_delay: -1\n",
      "Output #26, image2, to '/home/jack/Desktop/HDD500/collections/images/barista/00028.jpg':\n",
      "  Metadata:\n",
      "    encoder         : Lavf58.29.100\n",
      "    Stream #26:0: Video: mjpeg, yuvj420p(pc), 512x768 [SAR 1:1 DAR 2:3], q=2-31, 200 kb/s, 1 fps, 1 tbn, 1 tbc\n",
      "    Metadata:\n",
      "      encoder         : Lavc58.54.100 mjpeg\n",
      "    Side data:\n",
      "      cpb: bitrate max/min/avg: 0/0/200000 buffer size: 0 vbv_delay: -1\n",
      "Output #27, image2, to '/home/jack/Desktop/HDD500/collections/images/barista/00029.jpg':\n",
      "  Metadata:\n",
      "    encoder         : Lavf58.29.100\n",
      "    Stream #27:0: Video: mjpeg, yuvj420p(pc), 512x768 [SAR 1:1 DAR 2:3], q=2-31, 200 kb/s, 1 fps, 1 tbn, 1 tbc\n",
      "    Metadata:\n",
      "      encoder         : Lavc58.54.100 mjpeg\n",
      "    Side data:\n",
      "      cpb: bitrate max/min/avg: 0/0/200000 buffer size: 0 vbv_delay: -1\n",
      "Output #28, image2, to '/home/jack/Desktop/HDD500/collections/images/barista/00030.jpg':\n",
      "  Metadata:\n",
      "    encoder         : Lavf58.29.100\n",
      "    Stream #28:0: Video: mjpeg, yuvj420p(pc), 512x768 [SAR 1:1 DAR 2:3], q=2-31, 200 kb/s, 1 fps, 1 tbn, 1 tbc\n",
      "    Metadata:\n",
      "      encoder         : Lavc58.54.100 mjpeg\n",
      "    Side data:\n",
      "      cpb: bitrate max/min/avg: 0/0/200000 buffer size: 0 vbv_delay: -1\n",
      "Output #29, image2, to '/home/jack/Desktop/HDD500/collections/images/barista/00031.jpg':\n",
      "  Metadata:\n",
      "    encoder         : Lavf58.29.100\n",
      "    Stream #29:0: Video: mjpeg, yuvj420p(pc), 512x768 [SAR 1:1 DAR 2:3], q=2-31, 200 kb/s, 1 fps, 1 tbn, 1 tbc\n",
      "    Metadata:\n",
      "      encoder         : Lavc58.54.100 mjpeg\n",
      "    Side data:\n",
      "      cpb: bitrate max/min/avg: 0/0/200000 buffer size: 0 vbv_delay: -1\n",
      "[AVFilterGraph @ 0x55e849616c00] No such filter: '1.5):x'\n",
      "Error reinitializing filters!\n",
      "Failed to inject frame into filter network: Invalid argument\n",
      "Error while processing the decoded data for stream #0:0\n",
      "Conversion failed!\n"
     ]
    },
    {
     "name": "stderr",
     "output_type": "stream",
     "text": [
      "[0000000001cfc180] main libvlc: Running vlc with the default interface. Use 'cvlc' to use vlc without interface.\n",
      "[00007f23bc0019b0] cache_read stream error: cannot pre fill buffer\n",
      "[00007f23bc001150] mjpeg demux error: cannot peek\n",
      "QObject::~QObject: Timers cannot be stopped from another thread\n"
     ]
    },
    {
     "data": {
      "text/plain": [
       "CompletedProcess(args='vlc women01aazz.mp4', returncode=0)"
      ]
     },
     "execution_count": 13,
     "metadata": {},
     "output_type": "execute_result"
    }
   ],
   "source": [
    "import glob\n",
    "import subprocess\n",
    "\n",
    "# Function to get image size using ImageMagick's identify\n",
    "def get_image_size(file_path):\n",
    "    result = subprocess.run([\"identify\", \"-format\", \"%wx%h\", file_path], capture_output=True, text=True)\n",
    "    return result.stdout.strip()\n",
    "\n",
    "# Function to calculate crop offset as a percentage of image height\n",
    "def calculate_offset(image_size, offset_percentage):\n",
    "    height = int(image_size.split('x')[1])\n",
    "    return height * offset_percentage // 100\n",
    "\n",
    "# Directory containing image files\n",
    "image_directory = \"/home/jack/Desktop/HDD500/collections/images/barista\"\n",
    "\n",
    "# Get a list of image files\n",
    "image_files = glob.glob(f\"{image_directory}/*.jpg\")\n",
    "\n",
    "# Take the first five files in the list\n",
    "selected_files = image_files[:5]\n",
    "\n",
    "# Get the size of the first image\n",
    "first_image = selected_files[0]\n",
    "image_size = get_image_size(first_image)\n",
    "print(f\"Image Size: {image_size}\")\n",
    "\n",
    "# Concatenate width and height with ':'\n",
    "image_size_concatenated = ':'.join(image_size.split('x'))\n",
    "\n",
    "# Calculate crop offset as a percentage of image height\n",
    "offset_percentage = 10  # Adjust as needed\n",
    "offset = calculate_offset(image_size, offset_percentage)\n",
    "\n",
    "# Output video file\n",
    "output_file = \"women01aazz.mp4\"\n",
    "\n",
    "# Use subprocess to run the ffmpeg command\n",
    "ffmpeg_command = f\"ffmpeg -hide_banner -framerate 1 -pattern_type glob -i {image_directory}/*.jpg -vf 'scale=8000:-1,zoompan=z=min(zoom+0.001,1.5):x=iw/2:y=ih/2-4000:d=300,s=512x512,crop=512:512:0:{offset}' -c:v libx264 -pix_fmt yuv420p -r 24 -s 512x512 -y {output_file}\"\n",
    "subprocess.run(ffmpeg_command, shell=True)\n",
    "\n",
    "# Open the resulting video file with VLC\n",
    "#subprocess.run(f\"vlc {output_file}\", shell=True)\n"
   ]
  },
  {
   "cell_type": "code",
   "execution_count": 12,
   "id": "2a1d56b3",
   "metadata": {},
   "outputs": [
    {
     "ename": "SyntaxError",
     "evalue": "invalid syntax (4103057289.py, line 38)",
     "output_type": "error",
     "traceback": [
      "\u001b[0;36m  Cell \u001b[0;32mIn[12], line 38\u001b[0;36m\u001b[0m\n\u001b[0;31m    ffmpeg_command = f\"ffmpeg -hide_banner -framerate 1 -pattern_type glob -i -pattern_type glob -i {image_directory}/*.jpg  -vf \"scale=8000:-1,zoompan=z='min(zoom+0.001,1.5)':x='iw/2':y='ih/2-4000':d=300:s=512x512,crop=512:512:0:256\" -c:v libx264 -pix_fmt yuv420p -r 24 -s 512x512 -y women01aa.mp4\"\u001b[0m\n\u001b[0m                                                                                                                                  ^\u001b[0m\n\u001b[0;31mSyntaxError\u001b[0m\u001b[0;31m:\u001b[0m invalid syntax\n"
     ]
    }
   ],
   "source": [
    "import glob\n",
    "import subprocess\n",
    "\n",
    "# Function to get image size using ImageMagick's identify\n",
    "def get_image_size(file_path):\n",
    "    result = subprocess.run([\"identify\", \"-format\", \"%wx%h\", file_path], capture_output=True, text=True)\n",
    "    return result.stdout.strip()\n",
    "\n",
    "# Function to calculate crop offset as a percentage of image height\n",
    "def calculate_offset(image_size, offset_percentage):\n",
    "    height = int(image_size.split('x')[1])\n",
    "    return height * offset_percentage // 100\n",
    "\n",
    "# Directory containing image files\n",
    "image_directory = \"/home/jack/Desktop/HDD500/collections/images/barista\"\n",
    "\n",
    "# Get a list of image files\n",
    "image_files = glob.glob(f\"{image_directory}/*.jpg\")\n",
    "\n",
    "# Take the first five files in the list\n",
    "selected_files = image_files[:5]\n",
    "\n",
    "# Get the size of the first image\n",
    "first_image = selected_files[0]\n",
    "image_size = get_image_size(first_image)\n",
    "print(f\"Image Size: {image_size}\")\n",
    "\n",
    "# Concatenate width and height with ':'\n",
    "image_size_concatenated = ':'.join(image_size.split('x'))\n",
    "\n",
    "# Calculate crop offset as a percentage of image height\n",
    "offset_percentage = 10  # Adjust as needed\n",
    "offset = calculate_offset(image_size, offset_percentage)\n",
    "\n",
    "# Output video file\n",
    "output_file = \"women01aazz.mp4\"\n",
    "\n",
    "ffmpeg_command = f\"ffmpeg -hide_banner -framerate 1 -pattern_type glob -i -pattern_type glob -i {image_directory}/*.jpg  -vf \"scale=8000:-1,zoompan=z='min(zoom+0.001,1.5)':x='iw/2':y='ih/2-4000':d=300:s=512x512,crop=512:512:0:256\" -c:v libx264 -pix_fmt yuv420p -r 24 -s 512x512 -y women01aa.mp4\"\n",
    "subprocess.run(ffmpeg_command, shell=True)\n",
    "\n",
    "# Open the resulting video file with VLC\n",
    "subprocess.run(f\"vlc {output_file}\", shell=True)\n"
   ]
  },
  {
   "cell_type": "code",
   "execution_count": null,
   "id": "52f37362",
   "metadata": {},
   "outputs": [],
   "source": []
  },
  {
   "cell_type": "code",
   "execution_count": 8,
   "id": "2873f26f",
   "metadata": {},
   "outputs": [
    {
     "name": "stdout",
     "output_type": "stream",
     "text": [
      "Image Size: 512x768\n"
     ]
    },
    {
     "name": "stderr",
     "output_type": "stream",
     "text": [
      "Input #0, image2, from '/home/jack/Desktop/HDD500/collections/images/barista/00001.jpg':\n",
      "  Duration: 00:00:01.00, start: 0.000000, bitrate: 477 kb/s\n",
      "    Stream #0:0: Video: mjpeg (Baseline), yuvj420p(pc, bt470bg/unknown/unknown), 512x768 [SAR 1:1 DAR 2:3], 1 tbr, 1 tbn, 1 tbc\n",
      "Stream mapping:\n",
      "  Stream #0:0 -> #0:0 (mjpeg (native) -> mjpeg (native))\n",
      "  Stream #0:0 -> #1:0 (mjpeg (native) -> mjpeg (native))\n",
      "  Stream #0:0 -> #2:0 (mjpeg (native) -> mjpeg (native))\n",
      "  Stream #0:0 -> #3:0 (mjpeg (native) -> mjpeg (native))\n",
      "  Stream #0:0 -> #4:0 (mjpeg (native) -> mjpeg (native))\n",
      "  Stream #0:0 -> #5:0 (mjpeg (native) -> mjpeg (native))\n",
      "  Stream #0:0 -> #6:0 (mjpeg (native) -> mjpeg (native))\n",
      "  Stream #0:0 -> #7:0 (mjpeg (native) -> mjpeg (native))\n",
      "  Stream #0:0 -> #8:0 (mjpeg (native) -> mjpeg (native))\n",
      "  Stream #0:0 -> #9:0 (mjpeg (native) -> mjpeg (native))\n",
      "  Stream #0:0 -> #10:0 (mjpeg (native) -> mjpeg (native))\n",
      "  Stream #0:0 -> #11:0 (mjpeg (native) -> mjpeg (native))\n",
      "  Stream #0:0 -> #12:0 (mjpeg (native) -> mjpeg (native))\n",
      "  Stream #0:0 -> #13:0 (mjpeg (native) -> mjpeg (native))\n",
      "  Stream #0:0 -> #14:0 (mjpeg (native) -> mjpeg (native))\n",
      "  Stream #0:0 -> #15:0 (mjpeg (native) -> mjpeg (native))\n",
      "  Stream #0:0 -> #16:0 (mjpeg (native) -> mjpeg (native))\n",
      "  Stream #0:0 -> #17:0 (mjpeg (native) -> mjpeg (native))\n",
      "  Stream #0:0 -> #18:0 (mjpeg (native) -> mjpeg (native))\n",
      "  Stream #0:0 -> #19:0 (mjpeg (native) -> mjpeg (native))\n",
      "  Stream #0:0 -> #20:0 (mjpeg (native) -> mjpeg (native))\n",
      "  Stream #0:0 -> #21:0 (mjpeg (native) -> mjpeg (native))\n",
      "  Stream #0:0 -> #22:0 (mjpeg (native) -> mjpeg (native))\n",
      "  Stream #0:0 -> #23:0 (mjpeg (native) -> mjpeg (native))\n",
      "  Stream #0:0 -> #24:0 (mjpeg (native) -> mjpeg (native))\n",
      "  Stream #0:0 -> #25:0 (mjpeg (native) -> mjpeg (native))\n",
      "  Stream #0:0 -> #26:0 (mjpeg (native) -> mjpeg (native))\n",
      "  Stream #0:0 -> #27:0 (mjpeg (native) -> mjpeg (native))\n",
      "  Stream #0:0 -> #28:0 (mjpeg (native) -> mjpeg (native))\n",
      "  Stream #0:0 -> #29:0 (mjpeg (native) -> mjpeg (native))\n",
      "  Stream #0:0 -> #30:0 (mjpeg (native) -> h264 (libx264))\n",
      "Press [q] to stop, [?] for help\n",
      "Output #0, image2, to '/home/jack/Desktop/HDD500/collections/images/barista/00002.jpg':\n",
      "  Metadata:\n",
      "    encoder         : Lavf58.29.100\n",
      "    Stream #0:0: Video: mjpeg, yuvj420p(pc), 512x768 [SAR 1:1 DAR 2:3], q=2-31, 200 kb/s, 1 fps, 1 tbn, 1 tbc\n",
      "    Metadata:\n",
      "      encoder         : Lavc58.54.100 mjpeg\n",
      "    Side data:\n",
      "      cpb: bitrate max/min/avg: 0/0/200000 buffer size: 0 vbv_delay: -1\n",
      "Output #1, image2, to '/home/jack/Desktop/HDD500/collections/images/barista/00003.jpg':\n",
      "  Metadata:\n",
      "    encoder         : Lavf58.29.100\n",
      "    Stream #1:0: Video: mjpeg, yuvj420p(pc), 512x768 [SAR 1:1 DAR 2:3], q=2-31, 200 kb/s, 1 fps, 1 tbn, 1 tbc\n",
      "    Metadata:\n",
      "      encoder         : Lavc58.54.100 mjpeg\n",
      "    Side data:\n",
      "      cpb: bitrate max/min/avg: 0/0/200000 buffer size: 0 vbv_delay: -1\n",
      "Output #2, image2, to '/home/jack/Desktop/HDD500/collections/images/barista/00004.jpg':\n",
      "  Metadata:\n",
      "    encoder         : Lavf58.29.100\n",
      "    Stream #2:0: Video: mjpeg, yuvj420p(pc), 512x768 [SAR 1:1 DAR 2:3], q=2-31, 200 kb/s, 1 fps, 1 tbn, 1 tbc\n",
      "    Metadata:\n",
      "      encoder         : Lavc58.54.100 mjpeg\n",
      "    Side data:\n",
      "      cpb: bitrate max/min/avg: 0/0/200000 buffer size: 0 vbv_delay: -1\n",
      "Output #3, image2, to '/home/jack/Desktop/HDD500/collections/images/barista/00005.jpg':\n",
      "  Metadata:\n",
      "    encoder         : Lavf58.29.100\n",
      "    Stream #3:0: Video: mjpeg, yuvj420p(pc), 512x768 [SAR 1:1 DAR 2:3], q=2-31, 200 kb/s, 1 fps, 1 tbn, 1 tbc\n",
      "    Metadata:\n",
      "      encoder         : Lavc58.54.100 mjpeg\n",
      "    Side data:\n",
      "      cpb: bitrate max/min/avg: 0/0/200000 buffer size: 0 vbv_delay: -1\n",
      "Output #4, image2, to '/home/jack/Desktop/HDD500/collections/images/barista/00006.jpg':\n",
      "  Metadata:\n",
      "    encoder         : Lavf58.29.100\n",
      "    Stream #4:0: Video: mjpeg, yuvj420p(pc), 512x768 [SAR 1:1 DAR 2:3], q=2-31, 200 kb/s, 1 fps, 1 tbn, 1 tbc\n",
      "    Metadata:\n",
      "      encoder         : Lavc58.54.100 mjpeg\n",
      "    Side data:\n",
      "      cpb: bitrate max/min/avg: 0/0/200000 buffer size: 0 vbv_delay: -1\n",
      "Output #5, image2, to '/home/jack/Desktop/HDD500/collections/images/barista/00007.jpg':\n",
      "  Metadata:\n",
      "    encoder         : Lavf58.29.100\n",
      "    Stream #5:0: Video: mjpeg, yuvj420p(pc), 512x768 [SAR 1:1 DAR 2:3], q=2-31, 200 kb/s, 1 fps, 1 tbn, 1 tbc\n",
      "    Metadata:\n",
      "      encoder         : Lavc58.54.100 mjpeg\n",
      "    Side data:\n",
      "      cpb: bitrate max/min/avg: 0/0/200000 buffer size: 0 vbv_delay: -1\n",
      "Output #6, image2, to '/home/jack/Desktop/HDD500/collections/images/barista/00008.jpg':\n",
      "  Metadata:\n",
      "    encoder         : Lavf58.29.100\n",
      "    Stream #6:0: Video: mjpeg, yuvj420p(pc), 512x768 [SAR 1:1 DAR 2:3], q=2-31, 200 kb/s, 1 fps, 1 tbn, 1 tbc\n",
      "    Metadata:\n",
      "      encoder         : Lavc58.54.100 mjpeg\n",
      "    Side data:\n",
      "      cpb: bitrate max/min/avg: 0/0/200000 buffer size: 0 vbv_delay: -1\n",
      "Output #7, image2, to '/home/jack/Desktop/HDD500/collections/images/barista/00009.jpg':\n",
      "  Metadata:\n",
      "    encoder         : Lavf58.29.100\n",
      "    Stream #7:0: Video: mjpeg, yuvj420p(pc), 512x768 [SAR 1:1 DAR 2:3], q=2-31, 200 kb/s, 1 fps, 1 tbn, 1 tbc\n",
      "    Metadata:\n",
      "      encoder         : Lavc58.54.100 mjpeg\n",
      "    Side data:\n",
      "      cpb: bitrate max/min/avg: 0/0/200000 buffer size: 0 vbv_delay: -1\n",
      "Output #8, image2, to '/home/jack/Desktop/HDD500/collections/images/barista/00010.jpg':\n",
      "  Metadata:\n",
      "    encoder         : Lavf58.29.100\n",
      "    Stream #8:0: Video: mjpeg, yuvj420p(pc), 512x768 [SAR 1:1 DAR 2:3], q=2-31, 200 kb/s, 1 fps, 1 tbn, 1 tbc\n",
      "    Metadata:\n",
      "      encoder         : Lavc58.54.100 mjpeg\n",
      "    Side data:\n",
      "      cpb: bitrate max/min/avg: 0/0/200000 buffer size: 0 vbv_delay: -1\n",
      "Output #9, image2, to '/home/jack/Desktop/HDD500/collections/images/barista/00011.jpg':\n",
      "  Metadata:\n",
      "    encoder         : Lavf58.29.100\n",
      "    Stream #9:0: Video: mjpeg, yuvj420p(pc), 512x768 [SAR 1:1 DAR 2:3], q=2-31, 200 kb/s, 1 fps, 1 tbn, 1 tbc\n",
      "    Metadata:\n",
      "      encoder         : Lavc58.54.100 mjpeg\n",
      "    Side data:\n",
      "      cpb: bitrate max/min/avg: 0/0/200000 buffer size: 0 vbv_delay: -1\n",
      "Output #10, image2, to '/home/jack/Desktop/HDD500/collections/images/barista/00012.jpg':\n",
      "  Metadata:\n",
      "    encoder         : Lavf58.29.100\n",
      "    Stream #10:0: Video: mjpeg, yuvj420p(pc), 512x768 [SAR 1:1 DAR 2:3], q=2-31, 200 kb/s, 1 fps, 1 tbn, 1 tbc\n",
      "    Metadata:\n",
      "      encoder         : Lavc58.54.100 mjpeg\n",
      "    Side data:\n",
      "      cpb: bitrate max/min/avg: 0/0/200000 buffer size: 0 vbv_delay: -1\n",
      "Output #11, image2, to '/home/jack/Desktop/HDD500/collections/images/barista/00013.jpg':\n",
      "  Metadata:\n",
      "    encoder         : Lavf58.29.100\n",
      "    Stream #11:0: Video: mjpeg, yuvj420p(pc), 512x768 [SAR 1:1 DAR 2:3], q=2-31, 200 kb/s, 1 fps, 1 tbn, 1 tbc\n",
      "    Metadata:\n",
      "      encoder         : Lavc58.54.100 mjpeg\n",
      "    Side data:\n",
      "      cpb: bitrate max/min/avg: 0/0/200000 buffer size: 0 vbv_delay: -1\n",
      "Output #12, image2, to '/home/jack/Desktop/HDD500/collections/images/barista/00014.jpg':\n",
      "  Metadata:\n",
      "    encoder         : Lavf58.29.100\n",
      "    Stream #12:0: Video: mjpeg, yuvj420p(pc), 512x768 [SAR 1:1 DAR 2:3], q=2-31, 200 kb/s, 1 fps, 1 tbn, 1 tbc\n",
      "    Metadata:\n",
      "      encoder         : Lavc58.54.100 mjpeg\n",
      "    Side data:\n",
      "      cpb: bitrate max/min/avg: 0/0/200000 buffer size: 0 vbv_delay: -1\n",
      "Output #13, image2, to '/home/jack/Desktop/HDD500/collections/images/barista/00015.jpg':\n",
      "  Metadata:\n",
      "    encoder         : Lavf58.29.100\n",
      "    Stream #13:0: Video: mjpeg, yuvj420p(pc), 512x768 [SAR 1:1 DAR 2:3], q=2-31, 200 kb/s, 1 fps, 1 tbn, 1 tbc\n",
      "    Metadata:\n",
      "      encoder         : Lavc58.54.100 mjpeg\n",
      "    Side data:\n",
      "      cpb: bitrate max/min/avg: 0/0/200000 buffer size: 0 vbv_delay: -1\n",
      "Output #14, image2, to '/home/jack/Desktop/HDD500/collections/images/barista/00016.jpg':\n",
      "  Metadata:\n",
      "    encoder         : Lavf58.29.100\n",
      "    Stream #14:0: Video: mjpeg, yuvj420p(pc), 512x768 [SAR 1:1 DAR 2:3], q=2-31, 200 kb/s, 1 fps, 1 tbn, 1 tbc\n",
      "    Metadata:\n",
      "      encoder         : Lavc58.54.100 mjpeg\n",
      "    Side data:\n",
      "      cpb: bitrate max/min/avg: 0/0/200000 buffer size: 0 vbv_delay: -1\n",
      "Output #15, image2, to '/home/jack/Desktop/HDD500/collections/images/barista/00017.jpg':\n",
      "  Metadata:\n",
      "    encoder         : Lavf58.29.100\n",
      "    Stream #15:0: Video: mjpeg, yuvj420p(pc), 512x768 [SAR 1:1 DAR 2:3], q=2-31, 200 kb/s, 1 fps, 1 tbn, 1 tbc\n",
      "    Metadata:\n",
      "      encoder         : Lavc58.54.100 mjpeg\n",
      "    Side data:\n",
      "      cpb: bitrate max/min/avg: 0/0/200000 buffer size: 0 vbv_delay: -1\n",
      "Output #16, image2, to '/home/jack/Desktop/HDD500/collections/images/barista/00018.jpg':\n",
      "  Metadata:\n",
      "    encoder         : Lavf58.29.100\n",
      "    Stream #16:0: Video: mjpeg, yuvj420p(pc), 512x768 [SAR 1:1 DAR 2:3], q=2-31, 200 kb/s, 1 fps, 1 tbn, 1 tbc\n",
      "    Metadata:\n",
      "      encoder         : Lavc58.54.100 mjpeg\n",
      "    Side data:\n",
      "      cpb: bitrate max/min/avg: 0/0/200000 buffer size: 0 vbv_delay: -1\n",
      "Output #17, image2, to '/home/jack/Desktop/HDD500/collections/images/barista/00019.jpg':\n",
      "  Metadata:\n",
      "    encoder         : Lavf58.29.100\n",
      "    Stream #17:0: Video: mjpeg, yuvj420p(pc), 512x768 [SAR 1:1 DAR 2:3], q=2-31, 200 kb/s, 1 fps, 1 tbn, 1 tbc\n",
      "    Metadata:\n",
      "      encoder         : Lavc58.54.100 mjpeg\n",
      "    Side data:\n",
      "      cpb: bitrate max/min/avg: 0/0/200000 buffer size: 0 vbv_delay: -1\n",
      "Output #18, image2, to '/home/jack/Desktop/HDD500/collections/images/barista/00020.jpg':\n",
      "  Metadata:\n",
      "    encoder         : Lavf58.29.100\n",
      "    Stream #18:0: Video: mjpeg, yuvj420p(pc), 512x768 [SAR 1:1 DAR 2:3], q=2-31, 200 kb/s, 1 fps, 1 tbn, 1 tbc\n",
      "    Metadata:\n",
      "      encoder         : Lavc58.54.100 mjpeg\n",
      "    Side data:\n",
      "      cpb: bitrate max/min/avg: 0/0/200000 buffer size: 0 vbv_delay: -1\n",
      "Output #19, image2, to '/home/jack/Desktop/HDD500/collections/images/barista/00021.jpg':\n",
      "  Metadata:\n",
      "    encoder         : Lavf58.29.100\n",
      "    Stream #19:0: Video: mjpeg, yuvj420p(pc), 512x768 [SAR 1:1 DAR 2:3], q=2-31, 200 kb/s, 1 fps, 1 tbn, 1 tbc\n",
      "    Metadata:\n",
      "      encoder         : Lavc58.54.100 mjpeg\n",
      "    Side data:\n",
      "      cpb: bitrate max/min/avg: 0/0/200000 buffer size: 0 vbv_delay: -1\n",
      "Output #20, image2, to '/home/jack/Desktop/HDD500/collections/images/barista/00022.jpg':\n",
      "  Metadata:\n",
      "    encoder         : Lavf58.29.100\n",
      "    Stream #20:0: Video: mjpeg, yuvj420p(pc), 512x768 [SAR 1:1 DAR 2:3], q=2-31, 200 kb/s, 1 fps, 1 tbn, 1 tbc\n",
      "    Metadata:\n",
      "      encoder         : Lavc58.54.100 mjpeg\n",
      "    Side data:\n",
      "      cpb: bitrate max/min/avg: 0/0/200000 buffer size: 0 vbv_delay: -1\n",
      "Output #21, image2, to '/home/jack/Desktop/HDD500/collections/images/barista/00023.jpg':\n",
      "  Metadata:\n",
      "    encoder         : Lavf58.29.100\n",
      "    Stream #21:0: Video: mjpeg, yuvj420p(pc), 512x768 [SAR 1:1 DAR 2:3], q=2-31, 200 kb/s, 1 fps, 1 tbn, 1 tbc\n",
      "    Metadata:\n",
      "      encoder         : Lavc58.54.100 mjpeg\n",
      "    Side data:\n",
      "      cpb: bitrate max/min/avg: 0/0/200000 buffer size: 0 vbv_delay: -1\n",
      "Output #22, image2, to '/home/jack/Desktop/HDD500/collections/images/barista/00024.jpg':\n",
      "  Metadata:\n",
      "    encoder         : Lavf58.29.100\n",
      "    Stream #22:0: Video: mjpeg, yuvj420p(pc), 512x768 [SAR 1:1 DAR 2:3], q=2-31, 200 kb/s, 1 fps, 1 tbn, 1 tbc\n",
      "    Metadata:\n",
      "      encoder         : Lavc58.54.100 mjpeg\n",
      "    Side data:\n",
      "      cpb: bitrate max/min/avg: 0/0/200000 buffer size: 0 vbv_delay: -1\n",
      "Output #23, image2, to '/home/jack/Desktop/HDD500/collections/images/barista/00025.jpg':\n",
      "  Metadata:\n",
      "    encoder         : Lavf58.29.100\n",
      "    Stream #23:0: Video: mjpeg, yuvj420p(pc), 512x768 [SAR 1:1 DAR 2:3], q=2-31, 200 kb/s, 1 fps, 1 tbn, 1 tbc\n",
      "    Metadata:\n",
      "      encoder         : Lavc58.54.100 mjpeg\n",
      "    Side data:\n",
      "      cpb: bitrate max/min/avg: 0/0/200000 buffer size: 0 vbv_delay: -1\n"
     ]
    },
    {
     "name": "stderr",
     "output_type": "stream",
     "text": [
      "Output #24, image2, to '/home/jack/Desktop/HDD500/collections/images/barista/00026.jpg':\n",
      "  Metadata:\n",
      "    encoder         : Lavf58.29.100\n",
      "    Stream #24:0: Video: mjpeg, yuvj420p(pc), 512x768 [SAR 1:1 DAR 2:3], q=2-31, 200 kb/s, 1 fps, 1 tbn, 1 tbc\n",
      "    Metadata:\n",
      "      encoder         : Lavc58.54.100 mjpeg\n",
      "    Side data:\n",
      "      cpb: bitrate max/min/avg: 0/0/200000 buffer size: 0 vbv_delay: -1\n",
      "Output #25, image2, to '/home/jack/Desktop/HDD500/collections/images/barista/00027.jpg':\n",
      "  Metadata:\n",
      "    encoder         : Lavf58.29.100\n",
      "    Stream #25:0: Video: mjpeg, yuvj420p(pc), 512x768 [SAR 1:1 DAR 2:3], q=2-31, 200 kb/s, 1 fps, 1 tbn, 1 tbc\n",
      "    Metadata:\n",
      "      encoder         : Lavc58.54.100 mjpeg\n",
      "    Side data:\n",
      "      cpb: bitrate max/min/avg: 0/0/200000 buffer size: 0 vbv_delay: -1\n",
      "Output #26, image2, to '/home/jack/Desktop/HDD500/collections/images/barista/00028.jpg':\n",
      "  Metadata:\n",
      "    encoder         : Lavf58.29.100\n",
      "    Stream #26:0: Video: mjpeg, yuvj420p(pc), 512x768 [SAR 1:1 DAR 2:3], q=2-31, 200 kb/s, 1 fps, 1 tbn, 1 tbc\n",
      "    Metadata:\n",
      "      encoder         : Lavc58.54.100 mjpeg\n",
      "    Side data:\n",
      "      cpb: bitrate max/min/avg: 0/0/200000 buffer size: 0 vbv_delay: -1\n",
      "Output #27, image2, to '/home/jack/Desktop/HDD500/collections/images/barista/00029.jpg':\n",
      "  Metadata:\n",
      "    encoder         : Lavf58.29.100\n",
      "    Stream #27:0: Video: mjpeg, yuvj420p(pc), 512x768 [SAR 1:1 DAR 2:3], q=2-31, 200 kb/s, 1 fps, 1 tbn, 1 tbc\n",
      "    Metadata:\n",
      "      encoder         : Lavc58.54.100 mjpeg\n",
      "    Side data:\n",
      "      cpb: bitrate max/min/avg: 0/0/200000 buffer size: 0 vbv_delay: -1\n",
      "Output #28, image2, to '/home/jack/Desktop/HDD500/collections/images/barista/00030.jpg':\n",
      "  Metadata:\n",
      "    encoder         : Lavf58.29.100\n",
      "    Stream #28:0: Video: mjpeg, yuvj420p(pc), 512x768 [SAR 1:1 DAR 2:3], q=2-31, 200 kb/s, 1 fps, 1 tbn, 1 tbc\n",
      "    Metadata:\n",
      "      encoder         : Lavc58.54.100 mjpeg\n",
      "    Side data:\n",
      "      cpb: bitrate max/min/avg: 0/0/200000 buffer size: 0 vbv_delay: -1\n",
      "Output #29, image2, to '/home/jack/Desktop/HDD500/collections/images/barista/00031.jpg':\n",
      "  Metadata:\n",
      "    encoder         : Lavf58.29.100\n",
      "    Stream #29:0: Video: mjpeg, yuvj420p(pc), 512x768 [SAR 1:1 DAR 2:3], q=2-31, 200 kb/s, 1 fps, 1 tbn, 1 tbc\n",
      "    Metadata:\n",
      "      encoder         : Lavc58.54.100 mjpeg\n",
      "    Side data:\n",
      "      cpb: bitrate max/min/avg: 0/0/200000 buffer size: 0 vbv_delay: -1\n",
      "[AVFilterGraph @ 0x5643e9186b80] No such filter: '1.5):x'\n",
      "Error reinitializing filters!\n",
      "Failed to inject frame into filter network: Invalid argument\n",
      "Error while processing the decoded data for stream #0:0\n",
      "Conversion failed!\n",
      "[00000000010f5180] main libvlc: Running vlc with the default interface. Use 'cvlc' to use vlc without interface.\n",
      "[00007f01f80019f0] cache_read stream error: cannot pre fill buffer\n",
      "[00007f01f8001190] mjpeg demux error: cannot peek\n",
      "QObject::~QObject: Timers cannot be stopped from another thread\n"
     ]
    },
    {
     "data": {
      "text/plain": [
       "CompletedProcess(args='vlc women01aa.mp4', returncode=0)"
      ]
     },
     "execution_count": 8,
     "metadata": {},
     "output_type": "execute_result"
    }
   ],
   "source": [
    "import glob\n",
    "import subprocess\n",
    "\n",
    "# Function to get image size using ImageMagick's identify\n",
    "def get_image_size(file_path):\n",
    "    result = subprocess.run([\"identify\", \"-format\", \"%wx%h\", file_path], capture_output=True, text=True)\n",
    "    return result.stdout.strip()\n",
    "\n",
    "# Function to calculate crop offset as a percentage of image height\n",
    "def calculate_offset(image_size, offset_percentage):\n",
    "    height = int(image_size.split('x')[1])\n",
    "    return height * offset_percentage // 100\n",
    "\n",
    "# Directory containing image files\n",
    "image_directory = \"/home/jack/Desktop/HDD500/collections/images/barista\"\n",
    "\n",
    "# Get a list of image files\n",
    "image_files = glob.glob(f\"{image_directory}/*.jpg\")\n",
    "\n",
    "# Take the first five files in the list\n",
    "selected_files = image_files[:5]\n",
    "\n",
    "# Get the size of the first image\n",
    "first_image = selected_files[0]\n",
    "image_size = get_image_size(first_image)\n",
    "print(f\"Image Size: {image_size}\")\n",
    "\n",
    "# Concatenate width and height with ':'\n",
    "image_size_concatenated = ':'.join(image_size.split('x'))\n",
    "\n",
    "# Calculate crop offset as a percentage of image height\n",
    "offset_percentage = 10  # Adjust as needed\n",
    "offset = calculate_offset(image_size, offset_percentage)\n",
    "File=\"women01aa.mp4\"\n",
    "# Use subprocess to run the ffmpeg command\n",
    "ffmpeg_command = f\"ffmpeg -hide_banner -framerate 1 -pattern_type glob -i {image_directory}/*.jpg -vf 'scale=8000:-1,zoompan=z=min(zoom+0.001,1.5):x=iw/2:y=ih/2-4000:d=300,crop={image_size_concatenated},s={image_size_concatenated},crop=512:512:0:{offset}' -c:v libx264 -pix_fmt yuv420p -r 24 -s {image_size} -y {File}\"\n",
    "subprocess.run(ffmpeg_command, shell=True)\n",
    "subprocess.run(f\"vlc {File}\", shell=True)"
   ]
  },
  {
   "cell_type": "code",
   "execution_count": 5,
   "id": "880b5086",
   "metadata": {},
   "outputs": [
    {
     "name": "stdout",
     "output_type": "stream",
     "text": [
      "Overwriting znmake\n"
     ]
    }
   ],
   "source": [
    "%%writefile znmake\n",
    "#!/bin/bash\n",
    "List=\"$1/*.jpg\"\n",
    "Files=()\n",
    "\n",
    "# Logging setup\n",
    "log_file=\"script_log.txt\"\n",
    "exec > >(tee -a $log_file)  # Redirect stdout to log file\n",
    "exec 2>&1  # Redirect stderr to stdout\n",
    "\n",
    "# Iterate over the files and add them to the array\n",
    "for file in $List; do\n",
    "    Files+=(\"$file\")\n",
    "done\n",
    "\n",
    "# Take the first five files in the array\n",
    "Files=(\"${Files[@]:0:$2}\")\n",
    "\n",
    "# Get the size of the first image in the array\n",
    "first_image=\"${Files[0]}\"\n",
    "image_size=$(identify -format \"%wx%h\" \"$first_image\")\n",
    "echo \"Image Size: $image_size\"\n",
    "\n",
    "# Concatenate width and height with ':'\n",
    "image_size_concatenated=\"${image_size%%x*}:${image_size##*x}\"\n",
    "echo \"image_size_concatenated:\" $image_size_concatenated\n",
    "# Calculate crop offset as a percentage of image height\n",
    "offset_percentage=10  # Adjust as needed\n",
    "offset=$(( $(echo $image_size | cut -d'x' -f2) * $offset_percentage / 100 ))\n",
    "echo \"offset:\" $offset\n",
    "# Use ffmpeg to create the video with zoompan effect\n",
    "ffmpeg -hide_banner -framerate 1 -pattern_type glob -i \"$List\" -vf \"scale=8000:-1,zoompan=z='min(zoom+0.001,1.5)':x='iw/2':y='ih/2-4000':d=300,crop=${image_size_concatenated},scale=${image_size_concatenated},crop=512:512:0:$offset\" -c:v libx264 -pix_fmt yuv420p -r 24 -s $image_size -y women01aa.mp4\n",
    "#vlc women01aa.mp4\n"
   ]
  },
  {
   "cell_type": "code",
   "execution_count": 6,
   "id": "2507669c",
   "metadata": {},
   "outputs": [
    {
     "name": "stdout",
     "output_type": "stream",
     "text": [
      "Image Size: 512x768\n",
      "image_size_concatenated: 512:768\n",
      "offset: 76\n",
      "Input #0, image2, from '/home/jack/Desktop/HDD500/collections/images/barista//*.jpg':\n",
      "  Duration: 00:00:31.00, start: 0.000000, bitrate: N/A\n",
      "    Stream #0:0: Video: mjpeg (Baseline), yuvj420p(pc, bt470bg/unknown/unknown), 512x768 [SAR 1:1 DAR 2:3], 1 fps, 1 tbr, 1 tbn, 1 tbc\n",
      "Stream mapping:\n",
      "  Stream #0:0 -> #0:0 (mjpeg (native) -> h264 (libx264))\n",
      "Press [q] to stop, [?] for help\n",
      "[swscaler @ 0x55e0038d67c0] deprecated pixel format used, make sure you did set range correctly\n",
      "[Parsed_crop_2 @ 0x55e00381a340] Invalid too big or non positive size for width '512' or height '768'\n",
      "[Parsed_crop_2 @ 0x55e00381a340] Failed to configure input pad on Parsed_crop_2\n",
      "Error reinitializing filters!\n",
      "Failed to inject frame into filter network: Invalid argument\n",
      "Error while processing the decoded data for stream #0:0\n",
      "Conversion failed!\n"
     ]
    }
   ],
   "source": [
    "!bash znmake /home/jack/Desktop/HDD500/collections/images/barista/ 10"
   ]
  },
  {
   "cell_type": "code",
   "execution_count": null,
   "id": "1738b478",
   "metadata": {},
   "outputs": [],
   "source": [
    "275=0=0.00%/0.00%:100.00%x100.00%;"
   ]
  },
  {
   "cell_type": "code",
   "execution_count": null,
   "id": "477c0aca",
   "metadata": {},
   "outputs": [],
   "source": [
    "melt color:black out=00:00:10.000 -track \\\n",
    "        /home/jack/Desktop/HDD500/images/civitai/00002.jpg in=00:00:00.000 out=00:00:22.000 \\\n",
    "    -filter affine transition.cycle=660 transition.geometry=\"0=0.00%/0.00%:100.00%x100.00%;220=0.00%/-106.07%:206.07%x206.07%;440=0=0.00%/0.00%:100.00%x100.00%;\" -consumer avformat:zoomed_part1a.mp4\n",
    "vlc zoomed_part1a.mp4"
   ]
  },
  {
   "cell_type": "code",
   "execution_count": null,
   "id": "e8016b19",
   "metadata": {},
   "outputs": [],
   "source": [
    "melt color:black out=00:00:10.000 -track \\\n",
    "        /home/jack/Desktop/HDD500/images/civitai/00002.jpg in=00:00:00.000 out=00:00:22.000 \\\n",
    "    -filter affine transition.cycle=300 transition.geometry=\"0=0.00%/0.00%:100.00%x100.00%;175=0.00%/-106.07%:206.07%x206.07%;275=0=0.00%/0.00%:100.00%x100.00%;\" -consumer avformat:zoomed_part1a.mp4\n",
    "vlc zoomed_part1a.mp4"
   ]
  },
  {
   "cell_type": "code",
   "execution_count": null,
   "id": "cf74682c",
   "metadata": {},
   "outputs": [],
   "source": [
    "melt \\\n",
    "color:black out=00:00:10.000 \\\n",
    "-track /home/jack/Desktop/HDD500/images/civitai/00002.jpg \\ in=00:00:00.000 out=00:00:30.000 \\\n",
    "-filter affine transition.cycle=300 transition.geometry= \\ \"0=0.00%/0.00%:100.00%x100.00%;\\\n",
    "175=0.00%/-106.07%:206.07%x206.07%;\\\n",
    "275=0=0.00%/0.00%:100.00%x100.00%;\" \\\n",
    "-consumer avformat:zoomed_part01.mp4\n",
    "vlc zoomed_part01.mp4"
   ]
  },
  {
   "cell_type": "code",
   "execution_count": null,
   "id": "f5f30a57",
   "metadata": {},
   "outputs": [],
   "source": [
    "melt color:black out=00:00:10.000 -track \\\n",
    "        /home/jack/Desktop/HDD500/images/civitai/00002.jpg in=00:00:00.000 out=00:00:30.000 \\\n",
    "    -filter affine transition.cycle=300 transition.geometry=\"0=0.00%/0.00%:100.00%x100.00%;175=0.00%/-106.07%:206.07%x206.07%;275=0=0.00%/0.00%:100.00%x100.00%;\" -consumer avformat:zoomed_parta.mp4\n",
    "vlc zoomed_parta.mp4"
   ]
  },
  {
   "cell_type": "code",
   "execution_count": null,
   "id": "5b25cd02",
   "metadata": {},
   "outputs": [],
   "source": [
    "vlc zoomed_part.mp4"
   ]
  },
  {
   "cell_type": "code",
   "execution_count": null,
   "id": "ff06b873",
   "metadata": {},
   "outputs": [],
   "source": [
    "melt color:black out=00:00:20.000 -track \\\n",
    "        /home/jack/Desktop/HDD500/images/civitai/00002.jpg in=00:00:00.000 out=00:00:5.000 \\\n",
    "        -attach-clip affine background=colour:0 transition.geometry=\"0.00%/30.13%:69.86%x69.86%\" \\\n",
    "    -filter affine transition.cycle=350 transition.geometry=\"0=0.00%/0.00%:100.00%x100.00%;49=0.00%/0.00%:100.00%x100.00%;75=0.00%/-106.07%:206.07%x206.07%;125=0.00%/-106.07%:206.07%x206.07%;250=0.00%/-0.22%:100.22%x100.22%;300=0.00%/-0.22%:100.22%x100.22%;350=-31.34%/-31.64%:131.64%x131.64%\" "
   ]
  },
  {
   "cell_type": "code",
   "execution_count": null,
   "id": "ae204747",
   "metadata": {},
   "outputs": [],
   "source": [
    "melt color:black out=00:00:20.000 \\\n",
    "    -track Bl_Testv1.mp4 \\\n",
    "    -blank out=00:00:2.000 \\\n",
    "        /home/jack/Desktop/HDD500/images/civitai/00001.jpg in=00:00:00.000 out=00:00:5.000 \\\n",
    "        -attach-clip affine background=colour:0 transition.geometry=\"0.49%/53.29%:41.72%x46.35%\" \\\n",
    "    -blank out=00:00:1.000 \\\n",
    "        /home/jack/Desktop/HDD500/images/civitai/00002.jpg in=00:00:00.000 out=00:00:5.000 \\\n",
    "        -attach-clip affine background=colour:0 transition.geometry=\"0.00%/30.13%:69.86%x69.86%\" \\\n",
    "    -filter affine transition.cycle=0 transition.geometry=\"0=0.00%/0.00%:100.00%x100.00%;49=0.00%/0.00%:100.00%x100.00%;75=0.00%/-106.07%:206.07%x206.07%;125=0.00%/-106.07%:206.07%x206.07%;250=0.00%/-0.22%:100.22%x100.22%;300=0.00%/-0.22%:100.22%x100.22%;350=-31.34%/-31.64%:131.64%x131.64%\" \\\n",
    "    -transition mix:-1 always_active=1 a_track=0 b_track=1 sum=1 \\\n",
    "    -transition frei0r.cairoblend a_track=0 b_track=1 disable=0 \\\n",
    "    -transition mix:-1 always_active=1 a_track=0 b_track=2 sum=1 \\\n",
    "    -transition frei0r.cairoblend a_track=0 b_track=2 disable=0 \\\n",
    "    -consumer avformat:zoomed.mp4\n",
    "vlc zoomed.mp4"
   ]
  },
  {
   "cell_type": "code",
   "execution_count": null,
   "id": "869963e2",
   "metadata": {},
   "outputs": [],
   "source": [
    "    #75=0.00%/-106.07%:206.07%x206.07%;125=0.00%/-106.07%:206.07%x206.07%;250=0.00%/-0.22%:100.22%x100.22%;300=0.00%/-0.22%:100.22%x100.22%;350=-31.34%/-31.64%:131.64%x131.64%\" "
   ]
  },
  {
   "cell_type": "code",
   "execution_count": null,
   "id": "9e4d442c",
   "metadata": {},
   "outputs": [],
   "source": []
  },
  {
   "cell_type": "code",
   "execution_count": null,
   "id": "96de5668",
   "metadata": {},
   "outputs": [],
   "source": [
    "melt color:black out=00:00:20.000 \\\n",
    "    -track women01.mp4 \\\n",
    "    -blank out=00:00:2.000 \\\n",
    "        /home/jack/Desktop/HDD500/images/civitai/00001.jpg in=00:00:00.000 out=00:00:5.000 \\\n",
    "        -attach-clip affine background=colour:0 transition.geometry=\"0.49%/53.29%:41.72%x46.35%\" \\\n",
    "    -blank out=00:00:1.000 \\\n",
    "        /home/jack/Desktop/HDD500/images/civitai/00001.jpg in=00:00:00.000 out=00:00:5.000 \\\n",
    "        -attach-clip affine background=colour:0 transition.geometry=\"0.00%/30.13%:69.86%x69.86%\" \\\n",
    "    -filter affine transition.cycle=0 transition.geometry=\"0=0.00%/0.00%:100.00%x100.00%;49=0.00%/0.00%:100.00%x100.00%;75=0.00%/-106.07%:206.07%x206.07%;125=0.00%/-106.07%:206.07%x206.07%;250=0.00%/-0.22%:100.22%x100.22%;300=0.00%/-0.22%:100.22%x100.22%;350=-31.34%/-31.64%:131.64%x131.64%\" \\\n",
    "    -transition mix:-1 always_active=1 a_track=0 b_track=1 sum=1 \\\n",
    "    -transition frei0r.cairoblend a_track=0 b_track=1 disable=0 \\\n",
    "    -transition mix:-1 always_active=1 a_track=0 b_track=2 sum=1 \\\n",
    "    -transition frei0r.cairoblend a_track=0 b_track=2 disable=0 \\\n",
    "    -consumer avformat:zoomed.mp4\n",
    "vlc zoomed.mp4"
   ]
  },
  {
   "cell_type": "code",
   "execution_count": null,
   "id": "269ac7b7",
   "metadata": {},
   "outputs": [],
   "source": [
    "melt color:black out=00:00:20.000 \\\n",
    "    -track women01.mp4 \\\n",
    "    -blank out=00:00:2.000 \\\n",
    "        /home/jack/Desktop/HDD500/images/civitai/00001.jpg in=00:00:00.000 out=00:00:5.000 \\\n",
    "        -attach-clip affine background=colour:0 transition.geometry=\"0.49%/53.29%:41.72%x46.35%\" \\\n",
    "    -blank out=00:00:1.000 \\\n",
    "        /home/jack/Desktop/HDD500/images/civitai/00001.jpg in=00:00:00.000 out=00:00:5.000 \\\n",
    "        -attach-clip affine background=colour:0 transition.geometry=\"0.00%/30.13%:69.86%x69.86%\" \\\n",
    "    -filter affine transition.cycle=0 transition.geometry=\"0=0.00%/0.00%:100.00%x100.00%;49=0.00%/0.00%:100.00%x100.00%;75=0.00%/-106.07%:206.07%x206.07%;125=0.00%/-106.07%:206.07%x206.07%;250=0.00%/-0.22%:100.22%x100.22%;300=0.00%/-0.22%:100.22%x100.22%;350=-31.34%/-31.64%:131.64%x131.64%\" \\\n",
    "    -transition mix:-1 always_active=1 a_track=0 b_track=1 sum=1 \\\n",
    "    -transit -consumer avformat:zoomed_video.mp4\n"
   ]
  },
  {
   "cell_type": "code",
   "execution_count": null,
   "id": "6c55ddf2",
   "metadata": {},
   "outputs": [],
   "source": [
    "Image=\"/home/jack/Desktop/HDD500/images/civitai/00001.jpg\"\n",
    "Output=\"zoomed_video.mkv\"\n",
    "\n",
    "# Use melt with the affine filter to create the zoom effect\n",
    "melt $Image out=300 -filter affine transition.geometry=\"0=100%{scale=1}\" -consumer avformat:$Output vcodec=libx264 vb=8000k acodec=libmp3lame ab=192k\n",
    "\n",
    "# Play the resulting video\n",
    "vlc $Output\n"
   ]
  },
  {
   "cell_type": "code",
   "execution_count": null,
   "id": "a692de8c",
   "metadata": {},
   "outputs": [],
   "source": [
    "mpv zoomed_video.mp4\n",
    "\u001b= (+) Video --vid=1 (*) (h264 720x576 25.000fps)\n",
    " (+) Audio --aid=1 (*) (mp3 2ch 48000Hz)\n",
    "[ffmpeg/video] h264: No support for codec h264 profile 100.\n",
    "AO: [pulse] 48000Hz stereo 2ch float\n",
    "VO: [gpu] 720x576 => 768x576 yuv420p\n",
    "[0mAV: 00:00:10 / 00:00:12 (86%) A-V:  0.000\n",
    "\n",
    "\n",
    "Exiting... (Quit)"
   ]
  },
  {
   "cell_type": "code",
   "execution_count": null,
   "id": "af4d3018",
   "metadata": {},
   "outputs": [],
   "source": [
    "List=\"/home/jack/Desktop/HDD500/images/civitai/*.jpg\"\n",
    "Playlist=\"playlist.txt\"\n",
    "\n",
    "# Generate a playlist file\n",
    "ls $List > $Playlist\n",
    "\n",
    "# Use melt with the playlist\n",
    "melt @$Playlist in=1 out=300 -consumer avformat:zoompan.mp4 \\\n",
    "   acodec=libmp3lame vcodec=libx264 \\\n",
    "   vb=8000k ab=192k\n",
    "\n",
    "# Remove the playlist file after use\n",
    "rm $Playlist\n",
    "\n",
    "# Play the resulting video\n",
    "vlc zoompan.mp4\n"
   ]
  },
  {
   "cell_type": "code",
   "execution_count": null,
   "id": "b8a3a958",
   "metadata": {},
   "outputs": [],
   "source": []
  },
  {
   "cell_type": "code",
   "execution_count": null,
   "id": "eac97d68",
   "metadata": {},
   "outputs": [],
   "source": [
    "List=$(ls -1 /home/jack/Desktop/HDD500/images/civitai/*.jpg | tr '\\n' ' ')\n",
    "melt \"concat:$List\" in=1 out=300 -consumer avformat:zoompan.mp4 \\\n",
    "   acodec=libmp3lame vcodec=libx264 \\\n",
    "   vb=8000k ab=192k\n",
    "vlc zoompan.mp4\n"
   ]
  },
  {
   "cell_type": "code",
   "execution_count": null,
   "id": "915b341d",
   "metadata": {},
   "outputs": [],
   "source": [
    "List=$(ls /home/jack/Desktop/HDD500/images/civitai/*.jpg)\n",
    "melt \"concat:$List\" in=1 out=300 -consumer avformat:zoompan.mp4 \\\n",
    "   acodec=libmp3lame vcodec=libx264 \\\n",
    "   vb=8000k ab=192k\n",
    "vlc zoompan.mp4\n"
   ]
  },
  {
   "cell_type": "code",
   "execution_count": null,
   "id": "09eaeaa5",
   "metadata": {},
   "outputs": [],
   "source": [
    "List=\"/home/jack/Desktop/HDD500/images/civitai/*.jpg\"\n",
    "melt \"concat:$List\" in=1 out=300 -consumer avformat:zoompan.mp4 \\\n",
    "   acodec=libmp3lame vcodec=libx264 \\\n",
    "   vb=8000k ab=192k\n",
    "vlc zoompan.mp4"
   ]
  },
  {
   "cell_type": "markdown",
   "id": "0504de7a",
   "metadata": {},
   "source": [
    "# EXCELLENT EXAMPLE: do not alter"
   ]
  },
  {
   "cell_type": "code",
   "execution_count": null,
   "id": "fd455b1e",
   "metadata": {},
   "outputs": [],
   "source": [
    "# EXCELLENT\n",
    "List=\"/home/jack/Desktop/HDD500/images/civitai/*.jpg\"\n",
    "Files=()\n",
    "\n",
    "# Iterate over the files and add them to the array\n",
    "for file in $List; do\n",
    "    Files+=(\"$file\")\n",
    "done\n",
    "\n",
    "# Take the first five files in the array\n",
    "Files=(\"${Files[@]:0:5}\")\n",
    "\n",
    "# Use ffmpeg to create the video with zoompan effect\n",
    "ffmpeg -hide_banner -framerate 1 -pattern_type glob -i \"$List\" -vf \"scale=8000:-1,zoompan=z='min(zoom+0.001,1.5)':x='iw/2':y='ih/2-4000':d=300:s=512x512,crop=512:512:0:256\" -c:v libx264 -pix_fmt yuv420p -r 24 -s 512x512 -y women01aa.mp4\n",
    "overlay_pad women01aa.mp4\n",
    "# Play the output video using VLC (you can change this if needed)\n",
    "vlc temp/final_output3.mp4\n"
   ]
  },
  {
   "cell_type": "code",
   "execution_count": null,
   "id": "8ee52d8e",
   "metadata": {},
   "outputs": [],
   "source": [
    "vlc temp/final_output3.mp4"
   ]
  },
  {
   "cell_type": "code",
   "execution_count": null,
   "id": "3d2f5964",
   "metadata": {
    "scrolled": false
   },
   "outputs": [],
   "source": []
  },
  {
   "cell_type": "code",
   "execution_count": null,
   "id": "268148bc",
   "metadata": {},
   "outputs": [],
   "source": [
    "List=\"/home/jack/Desktop/HDD500/images/civitai/*.jpg\"\n",
    "Files=$(ls $List | head -n 5)\n",
    "echo $Files\n",
    "ffmpeg -framerate 1 -pattern_type glob -i $Files -vf \"scale=8000:-1,zoompan=z='min(zoom+0.0005,1.5)':x='iw/2':y='ih/2-4000':d=300:s=512x512,crop=512:512:0:256\" -c:v libx264 -pix_fmt yuv420p -r 24 -s 512x1024 -y women.mp4\n",
    "vlc women.mp4"
   ]
  },
  {
   "cell_type": "code",
   "execution_count": null,
   "id": "0f3c317e",
   "metadata": {},
   "outputs": [],
   "source": [
    "ffmpeg -framerate 1 -pattern_type glob -i \"/home/jack/Desktop/HDD500/images/civitai/*.jpg\"[:5] -vf \"scale=8000:-1,zoompan=z='min(zoom+0.0005,1.5)':x='iw/2':y='ih/2-4000':d=300:s=512x512,crop=512:512:0:256\" -c:v libx264 -pix_fmt yuv420p -r 24 -s 512x1024 -y women.mp4\n",
    "vlc women.mp4"
   ]
  },
  {
   "cell_type": "code",
   "execution_count": null,
   "id": "681615b3",
   "metadata": {},
   "outputs": [],
   "source": [
    "#!/bin/bash\n",
    "\n",
    "# Set the path to your image directory\n",
    "#images=\"/home/jack/Desktop/HDD500/collections/images/Dali_woman/\"\n",
    "images=\"/home/jack/Desktop/HDD500/collections/images/yoday_dali/\"\n",
    "# Set the output resolution\n",
    "output_resolution=\"512x768\"\n",
    "\n",
    "# Set the output video file path\n",
    "output_file=\"512x768_output_videoEXP02-2.mp4\"\n",
    "\n",
    "# Logging start\n",
    "echo \"Starting video processing...\"\n",
    "\n",
    "# Run melt command\n",
    "melt \\\n",
    "\"${images}/.all.jpg\" ttl=75 \\\n",
    "-attach crop center=1 \\\n",
    "-attach affine transition.cycle=225 transition.geometry=\"0=0/0:100%x100%;75=-10%/-10%:100%x100%;149=0/0:100%x100%;200=0/-5%:100%x100%;224=-5%/0:100%x100%\" \\\n",
    "-filter luma cycle=75 duration=25 \\\n",
    "-track /home/jack/Desktop/Ffmpeg/Cambodian-Odyssey/Odyssey.mp3 \\\n",
    "-transition mix \\\n",
    "-consumer avformat:\"${output_file}\" s=${output_resolution}\n",
    "\n",
    "# Logging end\n",
    "echo \"Video processing complete. Output saved at: ${output_file}\"\n",
    "vlc ${output_file}\n"
   ]
  },
  {
   "cell_type": "code",
   "execution_count": null,
   "id": "0cf7079e",
   "metadata": {},
   "outputs": [],
   "source": [
    "#!/bin/bash\n",
    "\n",
    "# Set the path to your image directory\n",
    "#images=\"/home/jack/Desktop/HDD500/collections/images/Dali_woman/\"\n",
    "images=\"/home/jack/Desktop/HDD500/collections/images/yoday_dali/\"\n",
    "images=\"/home/jack/Desktop/HDD500/collections/images/toon-alien/\"\n",
    "# Set the output resolution\n",
    "output_resolution=\"512x768\"\n",
    "\n",
    "# Set the output video file path\n",
    "output_file=\"512x768_output_EXP08.mp4\"\n",
    "\n",
    "# Logging start\n",
    "echo \"Starting video processing...\"\n",
    "\n",
    "# Run melt command\n",
    "melt \\\n",
    "\"${images}/.all.jpg\" ttl=75 \\\n",
    "-attach crop center=1 \\\n",
    "-attach affine transition.cycle=225 transition.geometry=\"0=0/0:90%x130%;74=-10%/-10%:120%x180%;125=-5%/-5%:90%x130%;149=0/0:110%x110%;175=0/-5%:90%x130%;224=-5%/0:90%x130%\" \\\n",
    "-filter luma cycle=75 duration=25 \\\n",
    "-track /home/jack/Desktop/Ffmpeg/Cambodian-Odyssey/Odyssey.mp3 \\\n",
    "-transition mix \\\n",
    "-consumer avformat:\"${output_file}\" s=${output_resolution}\n",
    "\n",
    "# Logging end\n",
    "echo \"Video processing complete. Output saved at: ${output_file}\"\n",
    "vlc ${output_file}\n"
   ]
  },
  {
   "cell_type": "code",
   "execution_count": null,
   "id": "703a74c6",
   "metadata": {},
   "outputs": [],
   "source": [
    "vlc ${output_file}"
   ]
  },
  {
   "cell_type": "code",
   "execution_count": null,
   "id": "a1a7add5",
   "metadata": {},
   "outputs": [],
   "source": []
  },
  {
   "cell_type": "code",
   "execution_count": null,
   "id": "2793e561",
   "metadata": {},
   "outputs": [],
   "source": [
    "%%writefile zoom-effect.explained\n",
    "List=\"/home/jack/Desktop/HDD500/images/civitai/*.jpg\"\n",
    "Files=()\n",
    "\n",
    "# Iterate over the files and add them to the array\n",
    "for file in $List; do\n",
    "    Files+=(\"$file\")\n",
    "done\n",
    "\n",
    "# Take the first five files in the array\n",
    "Files=(\"${Files[@]:0:5}\")\n",
    "\n",
    "# Use ffmpeg to create the video with zoompan effect\n",
    "ffmpeg -hide_banner -framerate 1 -pattern_type glob -i \"$List\" -vf \"scale=8000:-1,zoompan=z='min(zoom+0.001,1.5)':x='iw/2':y='ih/2-4000':d=300:s=512x512,crop=512:512:0:256\" -c:v libx264 -pix_fmt yuv420p -r 24 -s 512x512 -y women01.mp4\n",
    "\n",
    "# Play the output video using VLC (you can change this if needed)\n",
    "vlc women01.mp4\n",
    "\n",
    "\n",
    "\n",
    "-vf \"scale=8000:-1,zoompan=z='min(zoom+0.001,1.5)':x='iw/2':y='ih/2-4000':d=300:s=512x512,crop=512:512:0:256\"\n",
    "\n",
    "    scale=8000:-1: This part of the filter scales the input video. It resizes the video to a width of 8000 pixels, and the height is automatically adjusted to maintain the original aspect ratio. The -1 in the height parameter indicates that the aspect ratio should be automatically calculated.\n",
    "\n",
    "    zoompan=z='min(zoom+0.001,1.5)': This is the zoom and pan effect. The zoom parameter controls the zoom level. It increases by 0.001 in each frame but is limited to a maximum value of 1.5. So, the zoom starts at 1.0 and gradually increases, but it won't go beyond 1.5.\n",
    "\n",
    "    x='iw/2': Sets the horizontal position for the zoom and pan effect. It places the center of the zoom at half of the input width (iw/2), making it zoom in from the center horizontally.\n",
    "\n",
    "    y='ih/2-4000': Sets the vertical position for the zoom and pan effect. It places the center of the zoom 4000 pixels above the center of the input height (ih/2-4000), making it zoom in from above.\n",
    "\n",
    "    d=300: Specifies the duration of the zoom and pan effect. In this case, it lasts for 300 frames.\n",
    "\n",
    "    s=512x512: Resizes the video to a final size of 512x512 pixels after the zoom and pan effect.\n",
    "\n",
    "    crop=512:512:0:256: Crops the video to a final size of 512x512 pixels. The parameters are width:height:x:y. In this case, it crops 512x512 pixels starting from the top left corner (0:256).\n",
    "\n",
    "In summary, this filter applies a zoom and pan effect to the input video, starting from a center position, gradually zooming in, and then scales and crops the resulting video to a final size of 512x512 pixels. The parameters are carefully adjusted to achieve a specific visual effect during the transition."
   ]
  }
 ],
 "metadata": {
  "kernelspec": {
   "display_name": "cloned-base",
   "language": "python",
   "name": "cloned-base"
  },
  "language_info": {
   "codemirror_mode": {
    "name": "ipython",
    "version": 3
   },
   "file_extension": ".py",
   "mimetype": "text/x-python",
   "name": "python",
   "nbconvert_exporter": "python",
   "pygments_lexer": "ipython3",
   "version": "3.9.12"
  }
 },
 "nbformat": 4,
 "nbformat_minor": 5
}
